<svg width="577" height="497" viewBox="0 0 577 497" fill="none" xmlns="http://www.w3.org/2000/svg">
<path d="M136.066 335.945H108.645V412H97.4531V335.945H70.0898V326.688H136.066V335.945ZM173.215 358.328C171.574 358.055 169.797 357.918 167.883 357.918C160.773 357.918 155.949 360.945 153.41 367V412H142.57V348.602H153.117L153.293 355.926C156.848 350.262 161.887 347.43 168.41 347.43C170.52 347.43 172.121 347.703 173.215 348.25V358.328ZM220.031 412C219.406 410.75 218.898 408.523 218.508 405.32C213.469 410.555 207.453 413.172 200.461 413.172C194.211 413.172 189.074 411.414 185.051 407.898C181.066 404.344 179.074 399.852 179.074 394.422C179.074 387.82 181.574 382.703 186.574 379.07C191.613 375.398 198.684 373.562 207.785 373.562H218.332V368.582C218.332 364.793 217.199 361.785 214.934 359.559C212.668 357.293 209.328 356.16 204.914 356.16C201.047 356.16 197.805 357.137 195.188 359.09C192.57 361.043 191.262 363.406 191.262 366.18H180.363C180.363 363.016 181.477 359.969 183.703 357.039C185.969 354.07 189.016 351.727 192.844 350.008C196.711 348.289 200.949 347.43 205.559 347.43C212.863 347.43 218.586 349.266 222.727 352.938C226.867 356.57 229.016 361.59 229.172 367.996V397.176C229.172 402.996 229.914 407.625 231.398 411.062V412H220.031ZM202.043 403.738C205.441 403.738 208.664 402.859 211.711 401.102C214.758 399.344 216.965 397.059 218.332 394.246V381.238H209.836C196.555 381.238 189.914 385.125 189.914 392.898C189.914 396.297 191.047 398.953 193.312 400.867C195.578 402.781 198.488 403.738 202.043 403.738ZM271.594 404.324C275.461 404.324 278.84 403.152 281.73 400.809C284.621 398.465 286.223 395.535 286.535 392.02H296.789C296.594 395.652 295.344 399.109 293.039 402.391C290.734 405.672 287.648 408.289 283.781 410.242C279.953 412.195 275.891 413.172 271.594 413.172C262.961 413.172 256.086 410.301 250.969 404.559C245.891 398.777 243.352 390.887 243.352 380.887V379.07C243.352 372.898 244.484 367.41 246.75 362.605C249.016 357.801 252.258 354.07 256.477 351.414C260.734 348.758 265.754 347.43 271.535 347.43C278.645 347.43 284.543 349.559 289.23 353.816C293.957 358.074 296.477 363.602 296.789 370.398H286.535C286.223 366.297 284.66 362.938 281.848 360.32C279.074 357.664 275.637 356.336 271.535 356.336C266.027 356.336 261.75 358.328 258.703 362.312C255.695 366.258 254.191 371.98 254.191 379.48V381.531C254.191 388.836 255.695 394.461 258.703 398.406C261.711 402.352 266.008 404.324 271.594 404.324ZM326.672 382.645L319.875 389.734V412H309.035V322H319.875V376.434L325.676 369.461L345.422 348.602H358.605L333.938 375.086L361.477 412H348.762L326.672 382.645ZM384.504 333.25V348.602H396.34V356.98H384.504V396.297C384.504 398.836 385.031 400.75 386.086 402.039C387.141 403.289 388.938 403.914 391.477 403.914C392.727 403.914 394.445 403.68 396.633 403.211V412C393.781 412.781 391.008 413.172 388.312 413.172C383.469 413.172 379.816 411.707 377.355 408.777C374.895 405.848 373.664 401.688 373.664 396.297V356.98H362.121V348.602H373.664V333.25H384.504ZM405.012 379.715C405.012 373.504 406.223 367.918 408.645 362.957C411.105 357.996 414.504 354.168 418.84 351.473C423.215 348.777 428.195 347.43 433.781 347.43C442.414 347.43 449.387 350.418 454.699 356.395C460.051 362.371 462.727 370.32 462.727 380.242V381.004C462.727 387.176 461.535 392.723 459.152 397.645C456.809 402.527 453.43 406.336 449.016 409.07C444.641 411.805 439.602 413.172 433.898 413.172C425.305 413.172 418.332 410.184 412.98 404.207C407.668 398.23 405.012 390.32 405.012 380.477V379.715ZM415.91 381.004C415.91 388.035 417.531 393.68 420.773 397.938C424.055 402.195 428.43 404.324 433.898 404.324C439.406 404.324 443.781 402.176 447.023 397.879C450.266 393.543 451.887 387.488 451.887 379.715C451.887 372.762 450.227 367.137 446.906 362.84C443.625 358.504 439.25 356.336 433.781 356.336C428.43 356.336 424.113 358.465 420.832 362.723C417.551 366.98 415.91 373.074 415.91 381.004ZM506.965 358.328C505.324 358.055 503.547 357.918 501.633 357.918C494.523 357.918 489.699 360.945 487.16 367V412H476.32V348.602H486.867L487.043 355.926C490.598 350.262 495.637 347.43 502.16 347.43C504.27 347.43 505.871 347.703 506.965 348.25V358.328Z" fill="#FF9900"/>
<path d="M22.8594 469.93H8.53906V485H4.03906V450.875H25.1797V454.578H8.53906V466.25H22.8594V469.93ZM28.2266 472.086C28.2266 469.602 28.7109 467.367 29.6797 465.383C30.6641 463.398 32.0234 461.867 33.7578 460.789C35.5078 459.711 37.5 459.172 39.7344 459.172C43.1875 459.172 45.9766 460.367 48.1016 462.758C50.2422 465.148 51.3125 468.328 51.3125 472.297V472.602C51.3125 475.07 50.8359 477.289 49.8828 479.258C48.9453 481.211 47.5938 482.734 45.8281 483.828C44.0781 484.922 42.0625 485.469 39.7812 485.469C36.3438 485.469 33.5547 484.273 31.4141 481.883C29.2891 479.492 28.2266 476.328 28.2266 472.391V472.086ZM32.5859 472.602C32.5859 475.414 33.2344 477.672 34.5312 479.375C35.8438 481.078 37.5938 481.93 39.7812 481.93C41.9844 481.93 43.7344 481.07 45.0312 479.352C46.3281 477.617 46.9766 475.195 46.9766 472.086C46.9766 469.305 46.3125 467.055 44.9844 465.336C43.6719 463.602 41.9219 462.734 39.7344 462.734C37.5938 462.734 35.8672 463.586 34.5547 465.289C33.2422 466.992 32.5859 469.43 32.5859 472.602ZM69.0078 463.531C68.3516 463.422 67.6406 463.367 66.875 463.367C64.0312 463.367 62.1016 464.578 61.0859 467V485H56.75V459.641H60.9688L61.0391 462.57C62.4609 460.305 64.4766 459.172 67.0859 459.172C67.9297 459.172 68.5703 459.281 69.0078 459.5V463.531ZM107.375 479.023L112.25 459.641H116.586L109.203 485H105.688L99.5234 465.781L93.5234 485H90.0078L82.6484 459.641H86.9609L91.9531 478.625L97.8594 459.641H101.352L107.375 479.023ZM125.352 462.711C127.273 460.352 129.773 459.172 132.852 459.172C138.211 459.172 140.914 462.195 140.961 468.242V485H136.625V468.219C136.609 466.391 136.188 465.039 135.359 464.164C134.547 463.289 133.273 462.852 131.539 462.852C130.133 462.852 128.898 463.227 127.836 463.977C126.773 464.727 125.945 465.711 125.352 466.93V485H121.016V449H125.352V462.711ZM157.977 485.469C154.539 485.469 151.742 484.344 149.586 482.094C147.43 479.828 146.352 476.805 146.352 473.023V472.227C146.352 469.711 146.828 467.469 147.781 465.5C148.75 463.516 150.094 461.969 151.812 460.859C153.547 459.734 155.422 459.172 157.438 459.172C160.734 459.172 163.297 460.258 165.125 462.43C166.953 464.602 167.867 467.711 167.867 471.758V473.562H150.688C150.75 476.062 151.477 478.086 152.867 479.633C154.273 481.164 156.055 481.93 158.211 481.93C159.742 481.93 161.039 481.617 162.102 480.992C163.164 480.367 164.094 479.539 164.891 478.508L167.539 480.57C165.414 483.836 162.227 485.469 157.977 485.469ZM157.438 462.734C155.688 462.734 154.219 463.375 153.031 464.656C151.844 465.922 151.109 467.703 150.828 470H163.531V469.672C163.406 467.469 162.812 465.766 161.75 464.562C160.688 463.344 159.25 462.734 157.438 462.734ZM177.008 459.641L177.148 462.828C179.086 460.391 181.617 459.172 184.742 459.172C190.102 459.172 192.805 462.195 192.852 468.242V485H188.516V468.219C188.5 466.391 188.078 465.039 187.25 464.164C186.438 463.289 185.164 462.852 183.43 462.852C182.023 462.852 180.789 463.227 179.727 463.977C178.664 464.727 177.836 465.711 177.242 466.93V485H172.906V459.641H177.008ZM226.062 478.273C226.062 477.102 225.617 476.195 224.727 475.555C223.852 474.898 222.312 474.336 220.109 473.867C217.922 473.398 216.18 472.836 214.883 472.18C213.602 471.523 212.648 470.742 212.023 469.836C211.414 468.93 211.109 467.852 211.109 466.602C211.109 464.523 211.984 462.766 213.734 461.328C215.5 459.891 217.75 459.172 220.484 459.172C223.359 459.172 225.688 459.914 227.469 461.398C229.266 462.883 230.164 464.781 230.164 467.094H225.805C225.805 465.906 225.297 464.883 224.281 464.023C223.281 463.164 222.016 462.734 220.484 462.734C218.906 462.734 217.672 463.078 216.781 463.766C215.891 464.453 215.445 465.352 215.445 466.461C215.445 467.508 215.859 468.297 216.688 468.828C217.516 469.359 219.008 469.867 221.164 470.352C223.336 470.836 225.094 471.414 226.438 472.086C227.781 472.758 228.773 473.57 229.414 474.523C230.07 475.461 230.398 476.609 230.398 477.969C230.398 480.234 229.492 482.055 227.68 483.43C225.867 484.789 223.516 485.469 220.625 485.469C218.594 485.469 216.797 485.109 215.234 484.391C213.672 483.672 212.445 482.672 211.555 481.391C210.68 480.094 210.242 478.695 210.242 477.195H214.578C214.656 478.648 215.234 479.805 216.312 480.664C217.406 481.508 218.844 481.93 220.625 481.93C222.266 481.93 223.578 481.602 224.562 480.945C225.562 480.273 226.062 479.383 226.062 478.273ZM240.383 462.711C242.305 460.352 244.805 459.172 247.883 459.172C253.242 459.172 255.945 462.195 255.992 468.242V485H251.656V468.219C251.641 466.391 251.219 465.039 250.391 464.164C249.578 463.289 248.305 462.852 246.57 462.852C245.164 462.852 243.93 463.227 242.867 463.977C241.805 464.727 240.977 465.711 240.383 466.93V485H236.047V449H240.383V462.711ZM267.195 485H262.859V459.641H267.195V485ZM262.508 452.914C262.508 452.211 262.719 451.617 263.141 451.133C263.578 450.648 264.219 450.406 265.062 450.406C265.906 450.406 266.547 450.648 266.984 451.133C267.422 451.617 267.641 452.211 267.641 452.914C267.641 453.617 267.422 454.203 266.984 454.672C266.547 455.141 265.906 455.375 265.062 455.375C264.219 455.375 263.578 455.141 263.141 454.672C262.719 454.203 262.508 453.617 262.508 452.914ZM280.039 453.5V459.641H284.773V462.992H280.039V478.719C280.039 479.734 280.25 480.5 280.672 481.016C281.094 481.516 281.812 481.766 282.828 481.766C283.328 481.766 284.016 481.672 284.891 481.484V485C283.75 485.312 282.641 485.469 281.562 485.469C279.625 485.469 278.164 484.883 277.18 483.711C276.195 482.539 275.703 480.875 275.703 478.719V462.992H271.086V459.641H275.703V453.5H280.039ZM306.102 462.711C308.023 460.352 310.523 459.172 313.602 459.172C318.961 459.172 321.664 462.195 321.711 468.242V485H317.375V468.219C317.359 466.391 316.938 465.039 316.109 464.164C315.297 463.289 314.023 462.852 312.289 462.852C310.883 462.852 309.648 463.227 308.586 463.977C307.523 464.727 306.695 465.711 306.102 466.93V485H301.766V449H306.102V462.711ZM332.914 485H328.578V459.641H332.914V485ZM328.227 452.914C328.227 452.211 328.438 451.617 328.859 451.133C329.297 450.648 329.938 450.406 330.781 450.406C331.625 450.406 332.266 450.648 332.703 451.133C333.141 451.617 333.359 452.211 333.359 452.914C333.359 453.617 333.141 454.203 332.703 454.672C332.266 455.141 331.625 455.375 330.781 455.375C329.938 455.375 329.297 455.141 328.859 454.672C328.438 454.203 328.227 453.617 328.227 452.914ZM345.758 453.5V459.641H350.492V462.992H345.758V478.719C345.758 479.734 345.969 480.5 346.391 481.016C346.812 481.516 347.531 481.766 348.547 481.766C349.047 481.766 349.734 481.672 350.609 481.484V485C349.469 485.312 348.359 485.469 347.281 485.469C345.344 485.469 343.883 484.883 342.898 483.711C341.914 482.539 341.422 480.875 341.422 478.719V462.992H336.805V459.641H341.422V453.5H345.758ZM370.344 478.273C370.344 477.102 369.898 476.195 369.008 475.555C368.133 474.898 366.594 474.336 364.391 473.867C362.203 473.398 360.461 472.836 359.164 472.18C357.883 471.523 356.93 470.742 356.305 469.836C355.695 468.93 355.391 467.852 355.391 466.602C355.391 464.523 356.266 462.766 358.016 461.328C359.781 459.891 362.031 459.172 364.766 459.172C367.641 459.172 369.969 459.914 371.75 461.398C373.547 462.883 374.445 464.781 374.445 467.094H370.086C370.086 465.906 369.578 464.883 368.562 464.023C367.562 463.164 366.297 462.734 364.766 462.734C363.188 462.734 361.953 463.078 361.062 463.766C360.172 464.453 359.727 465.352 359.727 466.461C359.727 467.508 360.141 468.297 360.969 468.828C361.797 469.359 363.289 469.867 365.445 470.352C367.617 470.836 369.375 471.414 370.719 472.086C372.062 472.758 373.055 473.57 373.695 474.523C374.352 475.461 374.68 476.609 374.68 477.969C374.68 480.234 373.773 482.055 371.961 483.43C370.148 484.789 367.797 485.469 364.906 485.469C362.875 485.469 361.078 485.109 359.516 484.391C357.953 483.672 356.727 482.672 355.836 481.391C354.961 480.094 354.523 478.695 354.523 477.195H358.859C358.938 478.648 359.516 479.805 360.594 480.664C361.688 481.508 363.125 481.93 364.906 481.93C366.547 481.93 367.859 481.602 368.844 480.945C369.844 480.273 370.344 479.383 370.344 478.273ZM398.117 453.5V459.641H402.852V462.992H398.117V478.719C398.117 479.734 398.328 480.5 398.75 481.016C399.172 481.516 399.891 481.766 400.906 481.766C401.406 481.766 402.094 481.672 402.969 481.484V485C401.828 485.312 400.719 485.469 399.641 485.469C397.703 485.469 396.242 484.883 395.258 483.711C394.273 482.539 393.781 480.875 393.781 478.719V462.992H389.164V459.641H393.781V453.5H398.117ZM412.273 462.711C414.195 460.352 416.695 459.172 419.773 459.172C425.133 459.172 427.836 462.195 427.883 468.242V485H423.547V468.219C423.531 466.391 423.109 465.039 422.281 464.164C421.469 463.289 420.195 462.852 418.461 462.852C417.055 462.852 415.82 463.227 414.758 463.977C413.695 464.727 412.867 465.711 412.273 466.93V485H407.938V449H412.273V462.711ZM444.898 485.469C441.461 485.469 438.664 484.344 436.508 482.094C434.352 479.828 433.273 476.805 433.273 473.023V472.227C433.273 469.711 433.75 467.469 434.703 465.5C435.672 463.516 437.016 461.969 438.734 460.859C440.469 459.734 442.344 459.172 444.359 459.172C447.656 459.172 450.219 460.258 452.047 462.43C453.875 464.602 454.789 467.711 454.789 471.758V473.562H437.609C437.672 476.062 438.398 478.086 439.789 479.633C441.195 481.164 442.977 481.93 445.133 481.93C446.664 481.93 447.961 481.617 449.023 480.992C450.086 480.367 451.016 479.539 451.812 478.508L454.461 480.57C452.336 483.836 449.148 485.469 444.898 485.469ZM444.359 462.734C442.609 462.734 441.141 463.375 439.953 464.656C438.766 465.922 438.031 467.703 437.75 470H450.453V469.672C450.328 467.469 449.734 465.766 448.672 464.562C447.609 463.344 446.172 462.734 444.359 462.734ZM493.203 472.602C493.203 476.477 492.312 479.594 490.531 481.953C488.75 484.297 486.359 485.469 483.359 485.469C480.156 485.469 477.68 484.336 475.93 482.07L475.719 485H471.734V449H476.07V462.43C477.82 460.258 480.234 459.172 483.312 459.172C486.391 459.172 488.805 460.336 490.555 462.664C492.32 464.992 493.203 468.18 493.203 472.227V472.602ZM488.867 472.109C488.867 469.156 488.297 466.875 487.156 465.266C486.016 463.656 484.375 462.852 482.234 462.852C479.375 462.852 477.32 464.18 476.07 466.836V477.805C477.398 480.461 479.469 481.789 482.281 481.789C484.359 481.789 485.977 480.984 487.133 479.375C488.289 477.766 488.867 475.344 488.867 472.109ZM514.344 485C514.094 484.5 513.891 483.609 513.734 482.328C511.719 484.422 509.312 485.469 506.516 485.469C504.016 485.469 501.961 484.766 500.352 483.359C498.758 481.938 497.961 480.141 497.961 477.969C497.961 475.328 498.961 473.281 500.961 471.828C502.977 470.359 505.805 469.625 509.445 469.625H513.664V467.633C513.664 466.117 513.211 464.914 512.305 464.023C511.398 463.117 510.062 462.664 508.297 462.664C506.75 462.664 505.453 463.055 504.406 463.836C503.359 464.617 502.836 465.562 502.836 466.672H498.477C498.477 465.406 498.922 464.188 499.812 463.016C500.719 461.828 501.938 460.891 503.469 460.203C505.016 459.516 506.711 459.172 508.555 459.172C511.477 459.172 513.766 459.906 515.422 461.375C517.078 462.828 517.938 464.836 518 467.398V479.07C518 481.398 518.297 483.25 518.891 484.625V485H514.344ZM507.148 481.695C508.508 481.695 509.797 481.344 511.016 480.641C512.234 479.938 513.117 479.023 513.664 477.898V472.695H510.266C504.953 472.695 502.297 474.25 502.297 477.359C502.297 478.719 502.75 479.781 503.656 480.547C504.562 481.312 505.727 481.695 507.148 481.695ZM537.055 463.531C536.398 463.422 535.688 463.367 534.922 463.367C532.078 463.367 530.148 464.578 529.133 467V485H524.797V459.641H529.016L529.086 462.57C530.508 460.305 532.523 459.172 535.133 459.172C535.977 459.172 536.617 459.281 537.055 459.5V463.531ZM545.164 459.641L545.305 462.828C547.242 460.391 549.773 459.172 552.898 459.172C558.258 459.172 560.961 462.195 561.008 468.242V485H556.672V468.219C556.656 466.391 556.234 465.039 555.406 464.164C554.594 463.289 553.32 462.852 551.586 462.852C550.18 462.852 548.945 463.227 547.883 463.977C546.82 464.727 545.992 465.711 545.398 466.93V485H541.062V459.641H545.164ZM567.641 482.727C567.641 481.977 567.859 481.352 568.297 480.852C568.75 480.352 569.422 480.102 570.312 480.102C571.203 480.102 571.875 480.352 572.328 480.852C572.797 481.352 573.031 481.977 573.031 482.727C573.031 483.445 572.797 484.047 572.328 484.531C571.875 485.016 571.203 485.258 570.312 485.258C569.422 485.258 568.75 485.016 568.297 484.531C567.859 484.047 567.641 483.445 567.641 482.727Z" fill="#FF9900"/>
<rect x="207" y="474.311" width="79.8508" height="18" transform="rotate(-20 207 474.311)" fill="#FF9900"/>
<path d="M238.363 477.177C238.213 476.764 237.94 476.502 237.544 476.391C237.151 476.272 236.537 476.271 235.7 476.388C234.869 476.504 234.183 476.529 233.642 476.464C233.106 476.397 232.67 476.244 232.334 476.005C232.003 475.764 231.757 475.423 231.597 474.982C231.33 474.25 231.413 473.518 231.846 472.787C232.283 472.054 232.984 471.512 233.948 471.162C234.961 470.793 235.876 470.756 236.694 471.051C237.518 471.343 238.078 471.897 238.375 472.712L236.838 473.271C236.686 472.853 236.376 472.557 235.908 472.384C235.445 472.21 234.944 472.221 234.405 472.417C233.848 472.62 233.458 472.899 233.232 473.256C233.006 473.612 232.965 473.986 233.107 474.377C233.241 474.746 233.488 474.97 233.848 475.051C234.208 475.132 234.799 475.12 235.621 475.014C236.449 474.906 237.142 474.885 237.702 474.949C238.261 475.013 238.715 475.172 239.063 475.426C239.415 475.672 239.678 476.035 239.852 476.514C240.143 477.312 240.057 478.07 239.594 478.787C239.13 479.499 238.389 480.04 237.37 480.41C236.654 480.671 235.975 480.775 235.332 480.722C234.689 480.669 234.129 480.474 233.651 480.137C233.176 479.792 232.842 479.355 232.65 478.827L234.178 478.27C234.392 478.773 234.744 479.106 235.234 479.27C235.728 479.427 236.288 479.392 236.916 479.163C237.494 478.953 237.915 478.669 238.177 478.311C238.444 477.946 238.506 477.568 238.363 477.177ZM240.777 466.413L241.565 468.576L243.233 467.969L243.663 469.15L241.995 469.757L244.012 475.299C244.142 475.657 244.314 475.9 244.529 476.028C244.742 476.15 245.027 476.145 245.385 476.015C245.561 475.951 245.792 475.83 246.076 475.652L246.527 476.89C246.165 477.147 245.794 477.344 245.414 477.482C244.732 477.731 244.142 477.712 243.644 477.425C243.147 477.138 242.76 476.615 242.484 475.855L240.467 470.314L238.84 470.906L238.41 469.725L240.037 469.133L239.249 466.969L240.777 466.413ZM253.473 473.361C253.133 474.277 252.388 474.944 251.237 475.363C250.284 475.71 249.457 475.699 248.756 475.331C248.058 474.955 247.509 474.226 247.109 473.143L244.992 467.329L246.52 466.773L248.621 472.546C249.114 473.9 249.911 474.377 251.013 473.976C252.18 473.552 252.798 472.834 252.867 471.824L250.501 465.324L252.029 464.768L255.281 473.704L253.828 474.233L253.473 473.361ZM258.362 472.583L255.539 464.828L254.127 465.342L253.697 464.161L255.11 463.647L254.776 462.73C254.427 461.772 254.414 460.938 254.735 460.229C255.057 459.519 255.686 458.994 256.622 458.653C256.974 458.525 257.341 458.445 257.722 458.412L258.09 459.681C257.813 459.726 257.529 459.801 257.237 459.907C256.742 460.088 256.412 460.373 256.249 460.763C256.083 461.147 256.098 461.609 256.295 462.149L256.637 463.09L258.545 462.396L258.975 463.577L257.067 464.271L259.89 472.027L258.362 472.583ZM264.243 470.443L261.42 462.687L260.008 463.201L259.578 462.02L260.99 461.506L260.656 460.589C260.308 459.631 260.294 458.798 260.616 458.088C260.937 457.379 261.566 456.854 262.502 456.513C262.855 456.385 263.221 456.304 263.602 456.272L263.971 457.541C263.694 457.585 263.409 457.661 263.118 457.767C262.622 457.947 262.293 458.232 262.129 458.622C261.963 459.007 261.979 459.469 262.175 460.009L262.518 460.95L264.426 460.256L264.856 461.437L262.948 462.131L265.77 469.886L264.243 470.443Z" fill="white"/>
<path d="M304.25 34.875L260.5 78.625L269.25 87.5L286.75 70.125L300.5 83.875V112.5C300.5 126.375 289.375 137.5 275.5 137.5H268.75C281.104 151.228 287.958 169.032 288 187.5C287.975 191.691 287.599 195.872 286.875 200H325.875C327.412 186.254 333.96 173.556 344.267 164.333C354.574 155.109 367.919 150.007 381.75 150C392.877 150.006 403.752 153.312 413 159.5V100C413 86.125 401.875 75 388 75H309.375L295.625 61.25L313 43.75L304.25 34.875ZM188 87.5C181.125 87.5 175.5 93.125 175.5 100C175.5 106.875 181.125 112.5 188 112.5H250.5C250.5 98.75 239.375 87.5 225.5 87.5H188ZM213 125C206.376 125.002 199.793 126.057 193.5 128.125L198 139.75L192.125 142L188 130.375C174.714 136.146 163.844 146.352 157.25 159.25L168.625 164.375L166 170L154.75 165C151.96 172.174 150.519 179.802 150.5 187.5C150.502 194.125 151.557 200.707 153.625 207L165.25 202.5L167.5 208.375L155.875 212.5C161.646 225.786 171.853 236.656 184.75 243.25L189.75 231.875L195.5 234.5L190.5 245.75C197.674 248.54 205.302 249.981 213 250C219.625 249.998 226.207 248.944 232.5 246.875L228 235.25L233.875 233L238 244.625C251.287 238.854 262.156 228.648 268.75 215.75L257.375 210.75L260 205L271.25 210C274.04 202.826 275.481 195.198 275.5 187.5C275.498 180.875 274.444 174.293 272.375 168L260.75 172.5L258.5 166.625L270.125 162.5C264.354 149.214 254.148 138.344 241.25 131.75L236.25 143.125L230.5 140.5L235.5 129.25C228.326 126.46 220.698 125.019 213 125ZM213 150C222.946 150 232.484 153.951 239.517 160.984C246.549 168.016 250.5 177.554 250.5 187.5C250.5 197.446 246.549 206.984 239.517 214.017C232.484 221.049 222.946 225 213 225C203.055 225 193.516 221.049 186.484 214.017C179.451 206.984 175.5 197.446 175.5 187.5C175.5 177.554 179.451 168.016 186.484 160.984C193.516 153.951 203.055 150 213 150ZM381.75 162.5C370.147 162.5 359.019 167.109 350.814 175.314C342.609 183.519 338 194.647 338 206.25C338 217.853 342.609 228.981 350.814 237.186C359.019 245.391 370.147 250 381.75 250C393.353 250 404.481 245.391 412.686 237.186C420.891 228.981 425.5 217.853 425.5 206.25C425.5 194.647 420.891 183.519 412.686 175.314C404.481 167.109 393.353 162.5 381.75 162.5ZM381.75 187.5C386.723 187.5 391.492 189.475 395.008 192.992C398.525 196.508 400.5 201.277 400.5 206.25C400.5 211.223 398.525 215.992 395.008 219.508C391.492 223.025 386.723 225 381.75 225C376.777 225 372.008 223.025 368.492 219.508C364.976 215.992 363 211.223 363 206.25C363 201.277 364.976 196.508 368.492 192.992C372.008 189.475 376.777 187.5 381.75 187.5Z" fill="#FF9900"/>
<path d="M304.25 34.875L260.5 78.625L269.25 87.5L286.75 70.125L300.5 83.875V112.5C300.5 126.375 289.375 137.5 275.5 137.5H268.75C281.104 151.228 287.958 169.032 288 187.5C287.975 191.691 287.599 195.872 286.875 200H325.875C327.412 186.254 333.96 173.556 344.267 164.333C354.574 155.109 367.919 150.007 381.75 150C392.877 150.006 403.752 153.312 413 159.5V100C413 86.125 401.875 75 388 75H309.375L295.625 61.25L313 43.75L304.25 34.875ZM188 87.5C181.125 87.5 175.5 93.125 175.5 100C175.5 106.875 181.125 112.5 188 112.5H250.5C250.5 98.75 239.375 87.5 225.5 87.5H188ZM213 125C206.376 125.002 199.793 126.057 193.5 128.125L198 139.75L192.125 142L188 130.375C174.714 136.146 163.844 146.352 157.25 159.25L168.625 164.375L166 170L154.75 165C151.96 172.174 150.519 179.802 150.5 187.5C150.502 194.125 151.557 200.707 153.625 207L165.25 202.5L167.5 208.375L155.875 212.5C161.646 225.786 171.853 236.656 184.75 243.25L189.75 231.875L195.5 234.5L190.5 245.75C197.674 248.54 205.302 249.981 213 250C219.625 249.998 226.207 248.944 232.5 246.875L228 235.25L233.875 233L238 244.625C251.287 238.854 262.156 228.648 268.75 215.75L257.375 210.75L260 205L271.25 210C274.04 202.826 275.481 195.198 275.5 187.5C275.498 180.875 274.444 174.293 272.375 168L260.75 172.5L258.5 166.625L270.125 162.5C264.354 149.214 254.148 138.344 241.25 131.75L236.25 143.125L230.5 140.5L235.5 129.25C228.326 126.46 220.698 125.019 213 125ZM213 150C222.946 150 232.484 153.951 239.517 160.984C246.549 168.016 250.5 177.554 250.5 187.5C250.5 197.446 246.549 206.984 239.517 214.017C232.484 221.049 222.946 225 213 225C203.055 225 193.516 221.049 186.484 214.017C179.451 206.984 175.5 197.446 175.5 187.5C175.5 177.554 179.451 168.016 186.484 160.984C193.516 153.951 203.055 150 213 150ZM381.75 162.5C370.147 162.5 359.019 167.109 350.814 175.314C342.609 183.519 338 194.647 338 206.25C338 217.853 342.609 228.981 350.814 237.186C359.019 245.391 370.147 250 381.75 250C393.353 250 404.481 245.391 412.686 237.186C420.891 228.981 425.5 217.853 425.5 206.25C425.5 194.647 420.891 183.519 412.686 175.314C404.481 167.109 393.353 162.5 381.75 162.5ZM381.75 187.5C386.723 187.5 391.492 189.475 395.008 192.992C398.525 196.508 400.5 201.277 400.5 206.25C400.5 211.223 398.525 215.992 395.008 219.508C391.492 223.025 386.723 225 381.75 225C376.777 225 372.008 223.025 368.492 219.508C364.976 215.992 363 211.223 363 206.25C363 201.277 364.976 196.508 368.492 192.992C372.008 189.475 376.777 187.5 381.75 187.5Z" fill="#FF9900"/>
</svg>
