<svg width="300" height="300" viewBox="0 0 300 300" fill="none" xmlns="http://www.w3.org/2000/svg">
<path d="M166.25 34.875L122.5 78.625L131.25 87.5L148.75 70.125L162.5 83.875V112.5C162.5 126.375 151.375 137.5 137.5 137.5H130.75C143.104 151.228 149.958 169.032 150 187.5C149.975 191.691 149.599 195.872 148.875 200H187.875C189.412 186.254 195.96 173.556 206.267 164.333C216.574 155.109 229.919 150.007 243.75 150C254.877 150.006 265.752 153.312 275 159.5V100C275 86.125 263.875 75 250 75H171.375L157.625 61.25L175 43.75L166.25 34.875ZM50.0001 87.5C43.1252 87.5 37.5002 93.125 37.5002 100C37.5002 106.875 43.1252 112.5 50.0001 112.5H112.5C112.5 98.75 101.375 87.5 87.5001 87.5H50.0001ZM75.0001 125C68.3756 125.002 61.7935 126.056 55.5001 128.125L60.0002 139.75L54.1251 142L50.0001 130.375C36.7137 136.146 25.8443 146.352 19.2502 159.25L30.6252 164.375L28.0002 170L16.7502 165C13.96 172.174 12.5191 179.802 12.5002 187.5C12.5018 194.125 13.5566 200.707 15.6252 207L27.2502 202.5L29.5002 208.375L17.8752 212.5C23.6459 225.786 33.8525 236.656 46.7501 243.25L51.7501 231.875L57.5001 234.5L52.5001 245.75C59.6744 248.54 67.3024 249.981 75.0001 250C81.6247 249.998 88.2068 248.943 94.5001 246.875L90.0001 235.25L95.8751 233L100 244.625C113.287 238.854 124.156 228.648 130.75 215.75L119.375 210.75L122 205L133.25 210C136.04 202.826 137.481 195.198 137.5 187.5C137.498 180.875 136.444 174.293 134.375 168L122.75 172.5L120.5 166.625L132.125 162.5C126.354 149.214 116.148 138.344 103.25 131.75L98.2501 143.125L92.5001 140.5L97.5001 129.25C90.3259 126.46 82.6979 125.019 75.0001 125ZM75.0001 150C84.9458 150 94.484 153.951 101.517 160.983C108.549 168.016 112.5 177.554 112.5 187.5C112.5 197.446 108.549 206.984 101.517 214.016C94.484 221.049 84.9458 225 75.0001 225C65.0545 225 55.5163 221.049 48.4836 214.016C41.451 206.984 37.5002 197.446 37.5002 187.5C37.5002 177.554 41.451 168.016 48.4836 160.983C55.5163 153.951 65.0545 150 75.0001 150ZM243.75 162.5C232.147 162.5 221.019 167.109 212.814 175.314C204.609 183.519 200 194.647 200 206.25C200 217.853 204.609 228.981 212.814 237.186C221.019 245.391 232.147 250 243.75 250C255.353 250 266.481 245.391 274.686 237.186C282.891 228.981 287.5 217.853 287.5 206.25C287.5 194.647 282.891 183.519 274.686 175.314C266.481 167.109 255.353 162.5 243.75 162.5ZM243.75 187.5C248.723 187.5 253.492 189.475 257.008 192.992C260.525 196.508 262.5 201.277 262.5 206.25C262.5 211.223 260.525 215.992 257.008 219.508C253.492 223.025 248.723 225 243.75 225C238.777 225 234.008 223.025 230.492 219.508C226.976 215.992 225 211.223 225 206.25C225 201.277 226.976 196.508 230.492 192.992C234.008 189.475 238.777 187.5 243.75 187.5Z" fill="#FF9900"/>
<path d="M166.25 34.875L122.5 78.625L131.25 87.5L148.75 70.125L162.5 83.875V112.5C162.5 126.375 151.375 137.5 137.5 137.5H130.75C143.104 151.228 149.958 169.032 150 187.5C149.975 191.691 149.599 195.872 148.875 200H187.875C189.412 186.254 195.96 173.556 206.267 164.333C216.574 155.109 229.919 150.007 243.75 150C254.877 150.006 265.752 153.312 275 159.5V100C275 86.125 263.875 75 250 75H171.375L157.625 61.25L175 43.75L166.25 34.875ZM50.0001 87.5C43.1252 87.5 37.5002 93.125 37.5002 100C37.5002 106.875 43.1252 112.5 50.0001 112.5H112.5C112.5 98.75 101.375 87.5 87.5001 87.5H50.0001ZM75.0001 125C68.3756 125.002 61.7935 126.056 55.5001 128.125L60.0002 139.75L54.1251 142L50.0001 130.375C36.7137 136.146 25.8443 146.352 19.2502 159.25L30.6252 164.375L28.0002 170L16.7502 165C13.96 172.174 12.5191 179.802 12.5002 187.5C12.5018 194.125 13.5566 200.707 15.6252 207L27.2502 202.5L29.5002 208.375L17.8752 212.5C23.6459 225.786 33.8525 236.656 46.7501 243.25L51.7501 231.875L57.5001 234.5L52.5001 245.75C59.6744 248.54 67.3024 249.981 75.0001 250C81.6247 249.998 88.2068 248.943 94.5001 246.875L90.0001 235.25L95.8751 233L100 244.625C113.287 238.854 124.156 228.648 130.75 215.75L119.375 210.75L122 205L133.25 210C136.04 202.826 137.481 195.198 137.5 187.5C137.498 180.875 136.444 174.293 134.375 168L122.75 172.5L120.5 166.625L132.125 162.5C126.354 149.214 116.148 138.344 103.25 131.75L98.2501 143.125L92.5001 140.5L97.5001 129.25C90.3259 126.46 82.6979 125.019 75.0001 125ZM75.0001 150C84.9458 150 94.484 153.951 101.517 160.983C108.549 168.016 112.5 177.554 112.5 187.5C112.5 197.446 108.549 206.984 101.517 214.016C94.484 221.049 84.9458 225 75.0001 225C65.0545 225 55.5163 221.049 48.4836 214.016C41.451 206.984 37.5002 197.446 37.5002 187.5C37.5002 177.554 41.451 168.016 48.4836 160.983C55.5163 153.951 65.0545 150 75.0001 150ZM243.75 162.5C232.147 162.5 221.019 167.109 212.814 175.314C204.609 183.519 200 194.647 200 206.25C200 217.853 204.609 228.981 212.814 237.186C221.019 245.391 232.147 250 243.75 250C255.353 250 266.481 245.391 274.686 237.186C282.891 228.981 287.5 217.853 287.5 206.25C287.5 194.647 282.891 183.519 274.686 175.314C266.481 167.109 255.353 162.5 243.75 162.5ZM243.75 187.5C248.723 187.5 253.492 189.475 257.008 192.992C260.525 196.508 262.5 201.277 262.5 206.25C262.5 211.223 260.525 215.992 257.008 219.508C253.492 223.025 248.723 225 243.75 225C238.777 225 234.008 223.025 230.492 219.508C226.976 215.992 225 211.223 225 206.25C225 201.277 226.976 196.508 230.492 192.992C234.008 189.475 238.777 187.5 243.75 187.5Z" fill="#FF9900"/>
</svg>
